<svg width="100" height="100" viewBox="0 0 100 100" fill="none" xmlns="http://www.w3.org/2000/svg">
  <path d="M30 70C22.268 70 16 63.732 16 56C16 48.268 22.268 42 30 42C32.421 42 34.671 42.805 36.5 44.156C37.786 38.876 42.5 35 48 35C54.075 35 59 39.925 59 46C59 46.218 58.992 46.434 58.978 46.65C60.612 47.387 62 48.614 63 50.156C64.957 51.68 66 54.014 66 56.5C66 61.194 62.194 65 57.5 65H30Z" fill="white" stroke="black" stroke-width="2"/>
  <text x="20" y="90" font-family="Verdana" font-size="12" fill="orange">AWS</text>
</svg>
